{"title":"Unknown 2011 DVDRiP XViD AC3 - IMAGiNE","uid":6420689,"size":1495145300,"categoryP":"video","categoryS":"movies","magnet":"?xt=urn:btih:04a9133f03164d8c26c0b3aa0b431108a6e323af&amp;dn=Unknown+2011+DVDRiP+XViD+AC3+-+IMAGiNE&amp;tr=udp%3A%2F%2Ftracker.openbittorrent.com%3A80&amp;tr=udp%3A%2F%2Fopen.demonii.com%3A1337&amp;tr=udp%3A%2F%2Ftracker.coppersurfer.tk%3A6969&amp;tr=udp%3A%2F%2Fexodus.desync.com%3A6969","seeders":0,"leechers":1,"uploader":"SAFCukO09","files":3,"time":1306306853,"description":"*********** **** **** *** ******** *********** **** *** **********\n*+* +*+*+* *+*+*+ *+* *+* *+* *+* *+* *+*+* *+* *+*\n+*+ +*+ +*+*+ +*+ +*+ +*+ +*+ +*+ *+*+*+ +*+ +*+\n+$+ +$+ +*+ +$+ +$++*++$++* *$* +$+ +$+ +*+ +$+ +$++*++$\n+$+ +$+ +$+ +$+ +$+ +$+ +$+$ +$+ +$+ +$+$+$ +$+\n$+$ $+$ $+$ $+$ $+$ $+$ $+$ $+$ $+$ $+$+$ $+$\n$$$$$$$$$$$ $$$ $$$ $$$ $$$ $$$$$$$$ $$$$$$$$$$$ $$$ $$$$ $$$$$$$$$$\n\n\n\n\nAnother Fine Release Brought to you from - IMAGiNE\n\n\n********************************************************************************************************************\nUnknown 2011 DVDRiP XViD AC3 - IMAGiNE\n********************************************************************************************************************\n\nRipper ...........: IMAGiNE IMDB Rating.......: 6.8/10\nVideo Codec.......: XVID Release Date......: 24/05/11\nAudio Codec.......: AC3 Theatre Date......: 18/02/11\nAudio Bitrate.....: 256 Runtime.......: 1h 53mn\nSubtitles.........: NIL Language..........: ENGLISH\nResolution......: 720 x 304 IMDb URL..........: http://www.imdb.com/title/tt1401152/\n\n\nDETAILS:\n\nVideo\nID : 0\nFormat : MPEG-4 Visual\nFormat profile : Advanced Simple@L5\nFormat settings, BVOP : 2\nFormat settings, QPel : No\nFormat settings, GMC : No warppoints\nFormat settings, Matrix : Default (MPEG)\nMuxing mode : Packed bitstream\nCodec ID : XVID\nCodec ID/Hint : XviD\nDuration : 1h 53mn\nBit rate : 1 466 Kbps\nWidth : 720 pixels\nHeight : 304 pixels\nDisplay aspect ratio : 2.35:1\nFrame rate : 29.970 fps\nColor space : YUV\nChroma subsampling : 4:2:0\nBit depth : 8 bits\nScan type : Progressive\nCompression mode : Lossy\nBits/(Pixel*Frame) : 0.223\nStream size : 1.16 GiB (85%)\nWriting library : XviD 61\n\nAudio\nID : 1\nFormat : AC-3\nFormat/Info : Audio Coding 3\nMode extension : CM (complete main)\nCodec ID : 2000\nDuration : 1h 53mn\nBit rate mode : Constant\nBit rate : 256 Kbps\nChannel(s) : 2 channels\nChannel positions : Front: L R\nSampling rate : 48.0 KHz\nBit depth : 16 bits\nCompression mode : Lossy\nStream size : 207 MiB (15%)\nAlignment : Aligned on interleaves\nInterleave, duration : 33 ms (1.00 video frame)\nInterleave, preload duration : 512 ms\n\n\n\nSOURCES:\n\nVIDEO: ............. KINOPARK\nAUDIO: ............. KINOPARK\n\nNOTES:\n\nIMAGiNE bringing you another release..........\nUnknown............\nOk where to begin......\nsource was nice, also had english studio audio\nsince it was ntsc and came with the nice audio\nwe went with the dvdrip tag\nAnyhow, so we made a script to crop, resize and so on......\nThe audio was then remuxed to our encode\nFYI yes it has english subs hardcoded when needed\nEnjoy Folks!\n\nSCREENS:","torrent":{"xt":"urn:btih:04a9133f03164d8c26c0b3aa0b431108a6e323af","amp;dn":"Unknown+2011+DVDRiP+XViD+AC3+-+IMAGiNE","amp;tr":["udp%3A%2F%2Ftracker.openbittorrent.com%3A80","udp%3A%2F%2Fopen.demonii.com%3A1337","udp%3A%2F%2Ftracker.coppersurfer.tk%3A6969","udp%3A%2F%2Fexodus.desync.com%3A6969"],"infoHash":"04a9133f03164d8c26c0b3aa0b431108a6e323af","infoHashBuffer":{"type":"Buffer","data":[4,169,19,63,3,22,77,140,38,192,179,170,11,67,17,8,166,227,35,175]},"announce":[],"urlList":[]}}